HIERARCHY
ROOT Hips
{
	OFFSET 0.000000 0.000000 0.000000
	CHANNELS 6 Xposition Yposition Zposition Zrotation Yrotation Xrotation 
	JOINT LHipJoint
	{
		OFFSET 0.000000 0.000000 0.000000
		CHANNELS 3 Zrotation Yrotation Xrotation
		JOINT LeftUpLeg
		{
			OFFSET 1.363060 -1.794630 0.839290
			CHANNELS 3 Zrotation Yrotation Xrotation
			JOINT LeftLeg
			{
				OFFSET 2.448110 -6.726130 0.000000
				CHANNELS 3 Zrotation Yrotation Xrotation
				JOINT LeftFoot
				{
					OFFSET 2.562200 -7.039590 0.000000
					CHANNELS 3 Zrotation Yrotation Xrotation
					JOINT LeftToeBase
					{
						OFFSET 0.157640 -0.433110 2.322550
						CHANNELS 3 Zrotation Yrotation Xrotation
						End Site
						{
							OFFSET 0.000000 0.000000 0.000000
						}
					}
				}
			}
		}
	}
	JOINT RHipJoint
	{
		OFFSET 0.000000 0.000000 0.000000
		CHANNELS 3 Zrotation Yrotation Xrotation
		JOINT RightUpLeg
		{
			OFFSET -1.305520 -1.794630 0.839290
			CHANNELS 3 Zrotation Yrotation Xrotation
			JOINT RightLeg
			{
				OFFSET -2.542530 -6.985550 0.000000
				CHANNELS 3 Zrotation Yrotation Xrotation
				JOINT RightFoot
				{
					OFFSET -2.568260 -7.056230 0.000000
					CHANNELS 3 Zrotation Yrotation Xrotation
					JOINT RightToeBase
					{
						OFFSET -0.164730 -0.452590 2.363150
						CHANNELS 3 Zrotation Yrotation Xrotation
						End Site
						{
							OFFSET 0.000000 0.000000 0.000000
						}
					}
				}
			}
		}
	}
	JOINT LowerBack
	{
		OFFSET 0.000000 0.000000 0.000000
		CHANNELS 3 Zrotation Yrotation Xrotation
		JOINT Spine
		{
			OFFSET 0.028270 2.035590 -0.193380
			CHANNELS 3 Zrotation Yrotation Xrotation
			JOINT Spine1
			{
				OFFSET 0.056720 2.048850 -0.042750
				CHANNELS 3 Zrotation Yrotation Xrotation
				JOINT Neck
				{
					OFFSET 0.000000 0.000000 0.000000
					CHANNELS 3 Zrotation Yrotation Xrotation
					JOINT Neck1
					{
						OFFSET -0.054170 1.746240 0.172020
						CHANNELS 3 Zrotation Yrotation Xrotation
						JOINT Head
						{
							OFFSET 0.104070 1.761360 -0.123970
							CHANNELS 3 Zrotation Yrotation Xrotation
							End Site
							{
								OFFSET 0.000000 0.000000 0.000000
							}
						}
					}
				}
				JOINT LeftShoulder
				{
					OFFSET 0.000000 0.000000 0.000000
					CHANNELS 3 Zrotation Yrotation Xrotation
					JOINT LeftArm
					{
						OFFSET 3.362410 1.200890 -0.311210
						CHANNELS 3 Zrotation Yrotation Xrotation
						JOINT LeftForeArm
						{
							OFFSET 4.983000 -0.000000 -0.000000
							CHANNELS 3 Zrotation Yrotation Xrotation
							JOINT LeftHand
							{
								OFFSET 3.483560 -0.000000 -0.000000
								CHANNELS 3 Zrotation Yrotation Xrotation
								JOINT LeftFingerBase
								{
									OFFSET 0.000000 0.000000 0.000000
									CHANNELS 3 Zrotation Yrotation Xrotation
									JOINT LeftHandIndex1
									{
										OFFSET 0.715260 -0.000000 -0.000000
										CHANNELS 3 Zrotation Yrotation Xrotation
										End Site
										{
											OFFSET 0.000000 0.000000 0.000000
										}
									}
								}
								JOINT LThumb
								{
									OFFSET 0.000000 0.000000 0.000000
									CHANNELS 3 Zrotation Yrotation Xrotation
									End Site
									{
										OFFSET 0.000000 0.000000 0.000000
									}
								}
							}
						}
					}
				}
				JOINT RightShoulder
				{
					OFFSET 0.000000 0.000000 0.000000
					CHANNELS 3 Zrotation Yrotation Xrotation
					JOINT RightArm
					{
						OFFSET -3.136600 1.374050 -0.404650
						CHANNELS 3 Zrotation Yrotation Xrotation
						JOINT RightForeArm
						{
							OFFSET -5.241900 -0.000000 -0.000000
							CHANNELS 3 Zrotation Yrotation Xrotation
							JOINT RightHand
							{
								OFFSET -3.444170 -0.000000 -0.000000
								CHANNELS 3 Zrotation Yrotation Xrotation
								JOINT RightFingerBase
								{
									OFFSET 0.000000 0.000000 0.000000
									CHANNELS 3 Zrotation Yrotation Xrotation
									JOINT RightHandIndex1
									{
										OFFSET -0.622530 -0.000000 -0.000000
										CHANNELS 3 Zrotation Yrotation Xrotation
										End Site
										{
											OFFSET 0.000000 0.000000 0.000000
										}
									}
								}
								JOINT RThumb
								{
									OFFSET 0.000000 0.000000 0.000000
									CHANNELS 3 Zrotation Yrotation Xrotation
									End Site
									{
										OFFSET 0.000000 0.000000 0.000000
									}
								}
							}
						}
					}
				}
			}
		}
	}
}
MOTION
Frames: 4
Frame Time: 0.008333
-10.823709 17.152884 -0.582114 128.048644 88.159855 129.319667 -11.105523 5.464128 0.556660 0.991316 11.647506 10.101485 -0.037757 1.992417 24.934336 1.050856 -0.593025 24.065619 -0.811200 0.000000 -76.189800 9.502748 -1.109455 2.852762 7.304163 -1.406018 -21.830767 1.732306 -0.172090 12.651004 -1.705615 -9.001440 0.233849 -2.051300 0.000000 -25.819700 3.190274 -6.323697 -5.331824 0.497452 -6.749989 -2.942149 -5.421630 -6.704787 3.821125 9.993922 -23.266630 -11.436479 -2.529941 -0.150623 -0.926265 0.000000 0.000000 0.000000 4.763172 14.949830 1.331452 -34.158867 0.998233 -2.766743 -1.902200 -51.531717 0.000938 1.169372 -0.762999 -0.009264 -0.130348 0.169926 -0.000000 0.000000 0.000000 0.000000 0.000000 0.000000 0.000000 18.320632 -22.178604 -0.731251 74.539827 -16.911627 -12.582904 4.556581 21.473972 0.004080 7.951366 1.420199 0.099020 0.069420 -0.012482 -0.000000 0.000000 0.000000 0.000000 0.000000 0.000000 0.000000 
-10.647645 17.161613 -0.544343 134.106413 88.306027 135.186745 -11.149134 5.463284 0.528414 1.657548 12.014051 9.256989 0.078656 2.049170 27.009724 1.197848 -0.578649 25.613555 -0.908100 -0.000001 -72.709600 9.553492 -1.142385 2.739429 7.624862 -1.625491 -21.460483 1.716986 -0.271682 13.734228 -1.696774 -8.893029 -0.124569 -1.948000 -0.000000 -24.080900 3.423567 -6.259600 -5.234189 0.530086 -6.701624 -2.939432 -5.444304 -6.655754 3.782007 10.033004 -23.160158 -11.410364 -2.548670 -0.152840 -0.919632 0.000000 0.000000 0.000000 4.785920 14.866663 1.310328 -34.654631 1.331763 -2.626254 -1.924348 -51.469180 0.001454 1.032138 -0.785903 -0.008364 -0.129386 0.166120 0.000000 0.000000 0.000000 0.000000 0.000000 0.000000 0.000000 18.359036 -22.022590 -0.727070 74.150686 -16.221161 -12.827720 4.540854 21.291629 0.004496 7.723949 1.516347 0.102730 0.070912 -0.014627 -0.000000 0.000000 0.000000 0.000000 0.000000 0.000000 0.000000 
-10.474806 17.168813 -0.506357 140.085966 88.438860 140.982848 -11.188770 5.454345 0.486260 2.270477 12.409290 8.314928 0.172395 2.104047 29.176564 1.349703 -0.269344 26.858307 -0.840100 0.000000 -68.474500 9.604226 -1.161106 2.616417 7.938516 -1.886040 -21.039664 1.713053 -0.350733 14.705541 -1.669700 -8.677739 -0.579087 -1.811299 0.000000 -22.350700 3.628835 -6.186032 -5.110239 0.553408 -6.640588 -2.932513 -5.472549 -6.593749 3.739506 10.084827 -23.035007 -11.392648 -2.564640 -0.154600 -0.915320 0.000000 0.000000 0.000000 4.810531 14.780440 1.293128 -35.167515 1.680731 -2.433508 -1.950221 -51.367635 0.001906 0.900219 -0.791839 -0.007265 -0.128709 0.161682 -0.000000 0.000000 0.000000 0.000000 0.000000 0.000000 0.000000 18.393200 -21.842517 -0.714011 73.777570 -15.462220 -13.059340 4.520610 21.116448 0.004983 7.468925 1.640007 0.107442 0.072500 -0.017158 -0.000000 0.000000 0.000000 0.000000 0.000000 0.000000 0.000000 
-10.305118 17.174434 -0.468406 145.756416 88.552054 146.479793 -11.229481 5.437346 0.431880 2.815590 12.820290 7.282172 0.245774 2.161589 31.405705 1.501388 0.386872 27.730585 -0.565200 -0.000001 -63.743600 9.647175 -1.169505 2.486624 8.238728 -2.181954 -20.566066 1.719577 -0.408902 15.553376 -1.628381 -8.375507 -1.116518 -1.650800 -0.000000 -20.699700 3.799935 -6.104539 -4.964644 0.567025 -6.568146 -2.921873 -5.505234 -6.520168 3.694270 10.144375 -22.894960 -11.383101 -2.578177 -0.155942 -0.913301 0.000000 0.000000 0.000000 4.825847 14.695031 1.280284 -35.684345 2.035233 -2.177755 -1.979806 -51.227709 0.002299 0.773891 -0.782358 -0.006068 -0.128341 0.156560 -0.000000 0.000000 0.000000 0.000000 0.000000 0.000000 0.000000 18.421052 -21.642581 -0.693532 73.418314 -14.642862 -13.263535 4.495478 20.960309 0.005543 7.184984 1.796264 0.113256 0.074175 -0.020091 -0.000000 0.000000 0.000000 0.000000 0.000000 0.000000 0.000000 
